# xmcd
#
# Track frame offsets: 
#        150
#        13436
#        30634
#        50469
#        60035
#        77054
#        94284
#        112006
#        129308
#        144565
#        157657
#
# Disc length: 2231 seconds
#
# Revision: 0
# Processed by: cddbd v1.5.2PL0 Copyright (c) Steve Scherf et al.
# Submitted via: ExactAudioCopyFreeDBPlugin 1.0
#
DISCID=8608b50b
DTITLE=Mahalia Jackson - My Faith
DYEAR=1967
DGENRE=Traditional Gospel
TTITLE0=My Faith
TTITLE1=Until Then
TTITLE2=Lost In The Stars
TTITLE3=He Wants It That Way
TTITLE4=The Greatest Man That Ever Lived
TTITLE5=One Fold And One Shepherd
TTITLE6=Rain
TTITLE7=All That I Am
TTITLE8=He Has Never Left Me Alone
TTITLE9=Not My Will
TTITLE10=Life Can Be Beautiful
EXTD=
EXTT0=
EXTT1=
EXTT2=
EXTT3=
EXTT4=
EXTT5=
EXTT6=
EXTT7=
EXTT8=
EXTT9=
EXTT10=
PLAYORDER=
